<svg width="158" height="154" viewBox="0 0 158 154" fill="none" xmlns="http://www.w3.org/2000/svg">
  <path d="M31.6937 16.8707L79 2.61111L126.306 16.8707L155.438 54.0681V99.9319L126.306 137.129L79 151.389L31.6937 137.129L2.56231 99.9319V54.0681L31.6937 16.8707Z" fill="#70A9FE" stroke="black" stroke-width="5"/>
  <path d="M32.2407 82.9077L20.2129 65.4556H29.7476L37.3955 76.54L44.9424 65.4556H53.6348L41.6743 82.7393L54.3086 101H44.7739L36.5195 89.0732L27.8271 101H19.1348L32.2407 82.9077ZM59.4634 87.3213C59.4634 85.8838 59.5981 84.6147 59.8677 83.5142C60.1597 82.3911 60.5303 81.4141 60.9795 80.583C61.4287 79.752 61.9229 79.0557 62.4619 78.4941C63.001 77.9326 63.5288 77.4722 64.0454 77.1128C64.5845 76.7534 65.0674 76.4951 65.4941 76.3379C65.9434 76.1807 66.2803 76.0796 66.5049 76.0347V75.9673C66.0781 75.8774 65.5278 75.6528 64.854 75.2935C64.2026 74.9341 63.5625 74.3838 62.9336 73.6426C62.3047 72.8789 61.7656 71.8794 61.3164 70.644C60.8672 69.4087 60.6426 67.8701 60.6426 66.0283C60.6426 63.9844 60.8672 62.0977 61.3164 60.3682C61.7881 58.6387 62.5967 57.1562 63.7422 55.9209C64.8877 54.6631 66.4263 53.686 68.3579 52.9897C70.2896 52.2935 72.7266 51.9453 75.6689 51.9453C78.5889 51.9453 81.0146 52.2935 82.9463 52.9897C84.8779 53.686 86.4053 54.6631 87.5283 55.9209C88.6514 57.1562 89.4375 58.6387 89.8867 60.3682C90.3584 62.0977 90.5942 63.9844 90.5942 66.0283C90.5942 67.8701 90.3696 69.4087 89.9204 70.644C89.4937 71.8569 88.9658 72.834 88.3369 73.5752C87.708 74.3164 87.0566 74.8667 86.3828 75.2261C85.7314 75.5854 85.1812 75.8325 84.7319 75.9673V76.0347C84.9565 76.0796 85.2822 76.1807 85.709 76.3379C86.1582 76.4951 86.6411 76.7534 87.1577 77.1128C87.6743 77.4722 88.1909 77.9326 88.7075 78.4941C89.2466 79.0557 89.7295 79.752 90.1562 80.583C90.6055 81.4141 90.9648 82.3911 91.2344 83.5142C91.5264 84.6147 91.6724 85.8838 91.6724 87.3213C91.6724 90.3311 91.2681 92.7905 90.4595 94.6997C89.6733 96.5864 88.5615 98.0688 87.124 99.147C85.709 100.225 84.0132 100.966 82.0366 101.371C80.0601 101.775 77.8926 101.977 75.5342 101.977C73.1758 101.977 71.0083 101.775 69.0317 101.371C67.0776 100.966 65.3818 100.225 63.9443 99.147C62.5293 98.0688 61.4287 96.5864 60.6426 94.6997C59.8564 92.7905 59.4634 90.3311 59.4634 87.3213ZM75.6016 73.1372C76.9043 73.1372 78.0049 73.0137 78.9033 72.7666C79.8242 72.4971 80.5654 72.0815 81.127 71.52C81.6885 70.9585 82.0928 70.2285 82.3398 69.3301C82.5869 68.4092 82.7104 67.3086 82.7104 66.0283C82.7104 64.748 82.5869 63.6699 82.3398 62.7939C82.0928 61.918 81.6885 61.2104 81.127 60.6714C80.5654 60.1099 79.8242 59.7168 78.9033 59.4922C78.0049 59.2451 76.9043 59.1216 75.6016 59.1216C74.2988 59.1216 73.187 59.2451 72.2661 59.4922C71.3677 59.7168 70.6265 60.1099 70.0425 60.6714C69.481 61.2104 69.0654 61.918 68.7959 62.7939C68.5488 63.6699 68.4253 64.748 68.4253 66.0283C68.4253 67.3086 68.5488 68.4092 68.7959 69.3301C69.0654 70.2285 69.481 70.9585 70.0425 71.52C70.6265 72.0815 71.3677 72.4971 72.2661 72.7666C73.187 73.0137 74.2988 73.1372 75.6016 73.1372ZM67.6841 87.3213C67.6841 88.9385 67.8413 90.23 68.1558 91.1958C68.4927 92.1616 68.9868 92.9028 69.6382 93.4194C70.312 93.936 71.1431 94.2729 72.1313 94.4302C73.1196 94.5874 74.2764 94.666 75.6016 94.666C76.9268 94.666 78.0835 94.5874 79.0718 94.4302C80.0825 94.2729 80.9136 93.936 81.5649 93.4194C82.2388 92.9028 82.7329 92.1616 83.0474 91.1958C83.3843 90.23 83.5527 88.9385 83.5527 87.3213C83.5527 85.7266 83.3843 84.4238 83.0474 83.4131C82.7329 82.3799 82.2388 81.5713 81.5649 80.9873C80.9136 80.3809 80.0825 79.9653 79.0718 79.7407C78.0835 79.5161 76.9268 79.4038 75.6016 79.4038C74.2764 79.4038 73.1196 79.5161 72.1313 79.7407C71.1431 79.9653 70.312 80.3809 69.6382 80.9873C68.9868 81.5713 68.4927 82.3799 68.1558 83.4131C67.8413 84.4238 67.6841 85.7266 67.6841 87.3213ZM101.915 68.9932C101.915 66.4102 102.173 64.0742 102.689 61.9854C103.229 59.874 104.104 58.0771 105.317 56.5947C106.553 55.1123 108.17 53.9668 110.169 53.1582C112.19 52.3496 114.684 51.9453 117.648 51.9453C119.58 51.9453 121.287 52.0688 122.77 52.3159C124.274 52.563 125.555 52.8325 126.61 53.1245C127.846 53.4839 128.913 53.877 129.811 54.3037V60.3008C128.935 60.1436 127.992 60.0088 126.981 59.8965C126.127 59.7842 125.139 59.6831 124.016 59.5933C122.916 59.5034 121.759 59.4585 120.546 59.4585C118.592 59.4585 116.941 59.5596 115.593 59.7617C114.246 59.9414 113.145 60.3457 112.292 60.9746C111.46 61.5811 110.854 62.4795 110.472 63.6699C110.113 64.8379 109.933 66.3989 109.933 68.353V72.834C110.854 72.3848 111.82 71.9917 112.831 71.6548C113.841 71.3179 114.852 71.0483 115.863 70.8462C116.874 70.6216 117.862 70.4531 118.828 70.3408C119.793 70.2285 120.714 70.1724 121.59 70.1724C123.32 70.1724 124.892 70.4307 126.307 70.9473C127.745 71.4639 128.969 72.3398 129.979 73.5752C130.99 74.7881 131.776 76.4053 132.338 78.4268C132.899 80.4482 133.18 82.9639 133.18 85.9736C133.18 88.916 132.821 91.4092 132.102 93.4531C131.406 95.4971 130.373 97.1592 129.002 98.4395C127.655 99.6973 125.993 100.607 124.016 101.168C122.04 101.752 119.782 102.044 117.244 102.044C114.908 102.044 112.797 101.775 110.91 101.236C109.023 100.697 107.406 99.8433 106.059 98.6753C104.733 97.5073 103.711 96.0137 102.993 94.1943C102.274 92.3525 101.915 90.1401 101.915 87.5571V68.9932ZM109.933 85.8726C109.933 87.3999 110.023 88.7139 110.203 89.8145C110.405 90.915 110.764 91.8247 111.281 92.5435C111.82 93.2397 112.561 93.7563 113.504 94.0933C114.47 94.4302 115.717 94.5986 117.244 94.5986C118.749 94.5986 119.984 94.4414 120.95 94.127C121.938 93.79 122.713 93.2622 123.275 92.5435C123.859 91.8247 124.263 90.9038 124.488 89.7808C124.712 88.6577 124.825 87.2876 124.825 85.6704C124.825 83.9185 124.69 82.5034 124.42 81.4253C124.151 80.3472 123.713 79.5161 123.106 78.9321C122.5 78.3257 121.714 77.9214 120.748 77.7192C119.782 77.5171 118.614 77.416 117.244 77.416C116.301 77.416 115.38 77.4834 114.481 77.6182C113.605 77.7529 112.819 77.8989 112.123 78.0562C111.449 78.2134 110.91 78.3594 110.506 78.4941C110.102 78.6289 109.911 78.6963 109.933 78.6963V85.8726Z" fill="#740763"/>
</svg>
