<?xml version="1.0" standalone="no"?>
<!DOCTYPE svg PUBLIC "-//W3C//DTD SVG 20010904//EN"
 "http://www.w3.org/TR/2001/REC-SVG-20010904/DTD/svg10.dtd">
<svg version="1.0" xmlns="http://www.w3.org/2000/svg"
 width="678.000000pt" height="678.000000pt" viewBox="0 0 678.000000 678.000000"
 preserveAspectRatio="xMidYMid meet">
<metadata>
Created by potrace 1.14, written by Peter Selinger 2001-2017
</metadata>
<g transform="translate(0.000000,678.000000) scale(0.100000,-0.100000)"
fill="#000000" stroke="none">
<path d="M3247 6774 c-1 -1 -47 -4 -102 -8 -55 -3 -109 -8 -120 -10 -11 -2
-46 -7 -79 -11 -32 -3 -70 -9 -85 -11 -83 -14 -135 -24 -137 -27 -2 -2 -4
-310 -4 -685 -1 -646 -2 -685 -20 -744 -25 -82 -96 -164 -177 -204 l-58 -29
-280 -3 -280 -3 -27 -58 c-68 -144 -229 -237 -391 -225 -150 11 -294 122 -344
267 -26 77 -24 205 6 281 31 77 126 176 207 213 50 23 74 28 154 29 83 2 103
-1 158 -24 34 -15 83 -44 108 -66 47 -40 114 -134 114 -160 0 -8 5 -18 11 -21
5 -4 126 -7 267 -7 l256 0 33 36 c30 33 33 41 33 103 3 392 0 1236 -4 1240 -7
7 -153 -38 -291 -90 -336 -127 -641 -300 -925 -528 -105 -84 -119 -97 -235
-209 -331 -320 -584 -688 -763 -1110 -53 -126 -114 -301 -106 -309 3 -3 267
-6 587 -7 320 0 598 -4 617 -8 116 -27 219 -128 250 -246 9 -33 12 -245 12
-802 l0 -758 52 -24 c95 -44 184 -143 216 -239 19 -59 21 -171 3 -230 -63
-219 -297 -343 -510 -271 -289 98 -364 478 -133 681 14 12 50 35 80 50 30 15
57 31 60 35 3 3 5 344 5 757 0 745 0 750 -21 778 -40 54 -23 53 -680 53 l-611
0 -7 -32 c-3 -18 -10 -55 -16 -82 -20 -99 -50 -328 -57 -433 -12 -186 -6 -492
12 -604 2 -13 6 -48 9 -78 4 -30 9 -64 11 -75 2 -12 7 -37 9 -56 16 -114 66
-313 119 -470 22 -69 42 -127 42 -130 1 -3 5 -14 10 -25 4 -11 24 -58 43 -105
70 -173 185 -387 304 -565 l73 -110 1069 0 c840 0 1081 -3 1120 -13 68 -17
150 -73 189 -128 67 -94 65 -81 66 -690 1 -432 4 -553 14 -556 48 -19 606 -12
625 7 3 2 4 460 4 1018 0 928 -1 1017 -17 1046 -30 58 -39 59 -495 59 -228 1
-433 4 -455 7 -113 19 -219 115 -255 233 -17 53 -18 110 -19 737 0 374 0 701
-1 726 l0 46 -66 33 c-103 53 -180 148 -205 257 -42 183 42 367 208 452 271
138 596 -80 577 -386 -9 -136 -99 -266 -229 -330 l-55 -27 0 -719 c0 -658 1
-721 17 -748 33 -56 37 -56 500 -57 234 -1 440 -4 457 -8 93 -20 186 -96 232
-191 l29 -58 3 -1031 2 -1032 78 15 c110 20 318 76 452 121 l115 39 3 1379 c3
1255 1 1382 -13 1410 -32 60 -37 61 -505 61 -401 1 -428 2 -477 21 -95 36
-174 117 -206 209 -8 22 -15 71 -16 110 -1 38 -3 809 -4 1713 l-2 1645 -68 0
c-38 0 -69 -1 -70 -1z"/>
<path d="M3618 6757 c-2 -6 -4 -768 -4 -1693 1 -1584 2 -1682 19 -1707 35 -54
37 -54 497 -54 l426 -1 62 -24 c73 -30 118 -67 159 -128 60 -91 57 0 59 -1455
1 -737 3 -1346 3 -1353 1 -10 168 68 231 108 8 5 52 32 98 60 46 27 132 85
192 127 l109 78 3 1160 3 1160 27 55 c35 71 97 133 167 168 l56 27 525 5 525
5 -1 100 c0 106 -11 323 -18 365 -5 27 -19 139 -20 155 -1 7 -380 12 -1106 15
l-1105 5 -58 29 c-65 32 -129 90 -156 145 -39 75 -42 113 -42 479 l-1 357 -55
24 c-124 55 -222 198 -228 336 -9 174 75 312 235 389 59 28 74 31 160 31 86 0
101 -3 162 -32 65 -30 168 -114 168 -136 0 -6 6 -18 14 -26 8 -9 23 -43 35
-76 31 -91 24 -200 -17 -288 -38 -82 -113 -159 -186 -193 -30 -13 -56 -30 -58
-37 -2 -7 -4 -167 -3 -357 1 -375 1 -377 57 -406 29 -15 129 -16 1072 -16 573
0 1046 1 1053 1 22 2 -97 395 -161 536 -8 17 -21 47 -30 68 l-15 37 -533 1
c-293 0 -544 2 -558 5 -83 14 -176 76 -221 146 -61 95 -61 84 -61 753 l-1 611
-51 28 c-376 204 -749 333 -1136 392 -25 3 -52 8 -60 9 -8 1 -46 6 -85 9 -38
4 -86 9 -107 11 -23 3 -38 0 -40 -8z"/>
<path d="M5327 6153 c-2 -5 -3 -242 -2 -528 1 -479 2 -522 18 -546 33 -50 43
-51 534 -51 252 0 462 1 466 1 12 1 -41 95 -132 231 -214 323 -472 597 -791
840 -82 62 -86 65 -93 53z"/>
<path d="M4337 5495 c-177 -45 -167 -299 14 -333 52 -10 90 0 138 36 40 30 61
76 61 137 0 112 -101 189 -213 160z"/>
<path d="M1453 5309 c-21 -10 -45 -24 -54 -31 -29 -24 -49 -76 -49 -128 0
-172 233 -232 318 -82 80 144 -69 311 -215 241z"/>
<path d="M2561 4448 c-47 -13 -77 -35 -101 -72 -75 -123 18 -277 160 -264 95
9 154 76 154 173 1 112 -104 192 -213 163z"/>
<path d="M5783 3060 c-29 -8 -49 -23 -67 -52 -17 -26 -18 -93 -19 -1053 0
-564 2 -1027 5 -1030 5 -5 172 160 218 215 11 14 31 36 44 50 12 14 47 57 76
95 30 39 57 72 61 75 15 13 165 241 215 326 179 310 323 683 383 989 6 28 12
59 14 70 8 37 36 219 41 270 l6 50 -479 0 c-264 0 -488 -2 -498 -5z"/>
<path d="M1465 2358 c-68 -24 -115 -91 -115 -162 0 -103 75 -176 179 -176 46
0 110 40 136 84 27 47 34 121 14 159 -42 82 -136 123 -214 95z"/>
<path d="M851 1151 c34 -44 199 -210 289 -290 402 -360 896 -621 1429 -756 53
-13 110 -26 126 -29 17 -3 41 -8 55 -11 14 -3 45 -8 70 -11 l45 -6 -1 513 c-1
283 -2 522 -3 531 0 10 -14 32 -30 50 l-29 33 -986 1 -985 1 20 -26z"/>
</g>
</svg>
