<svg fill="none" height="72" viewBox="0 0 107 72" width="107" xmlns="http://www.w3.org/2000/svg">
  <rect fill="#758BFF" height="68" rx="4" stroke="black" stroke-width="4" width="72" x="18" y="2"/>
  <rect height="46" rx="3" stroke="black" stroke-width="4" width="9" x="38" y="13"/>
  <rect height="23" rx="3" stroke="black" stroke-width="4" transform="matrix(-1 0 0 1 70 38)" width="9" x="2" y="-2"/>
  <line stroke="black" stroke-linecap="round" stroke-width="5" x1="90.5" x2="104.5" y1="13.5" y2="13.5"/>
  <line stroke="black" stroke-linecap="round" stroke-width="5" x1="90.5" x2="104.5" y1="27.5" y2="27.5"/>
  <line stroke="black" stroke-linecap="round" stroke-width="5" x1="90.5" x2="104.5" y1="41.5" y2="41.5"/>
  <line stroke="black" stroke-linecap="round" stroke-width="5" x1="90.5" x2="104.5" y1="55.5" y2="55.5"/>
  <line stroke="black" stroke-linecap="round" stroke-width="5" x1="2.5" x2="16.5" y1="13.5" y2="13.5"/>
  <line stroke="black" stroke-linecap="round" stroke-width="5" x1="2.5" x2="16.5" y1="27.5" y2="27.5"/>
  <line stroke="black" stroke-linecap="round" stroke-width="5" x1="40.2634" x2="46.2839" y1="36.2839" y2="35.7366"/>
  <line stroke="black" stroke-linecap="round" stroke-width="5" x1="2.5" x2="16.5" y1="41.5" y2="41.5"/>
  <line stroke="black" stroke-linecap="round" stroke-width="5" x1="2.5" x2="16.5" y1="55.5" y2="55.5"/>
  <path d="M59 38V23.119V18.1842C59 17.1356 59.3297 16.1136 59.9423 15.2626L60.4446 14.5651C61.1521 13.5824 62.2891 13 63.5 13V13C64.7109 13 65.8479 13.5824 66.5554 14.5651L67.0577 15.2626C67.6703 16.1136 68 17.1356 68 18.1842V23.119V29.0714" stroke="black" stroke-width="4"/>
</svg>
